<svg width="31" height="31" viewBox="0 0 31 31" fill="none" xmlns="http://www.w3.org/2000/svg">
<path d="M11.625 15.1367H28.8809C29.7168 15.1367 30.3945 15.8144 30.3945 16.6504V26.3984C30.3945 27.2344 29.7168 27.9121 28.8809 27.9121H11.625C10.789 27.9121 10.1113 27.2344 10.1113 26.3984V16.6504C10.1113 15.8144 10.789 15.1367 11.625 15.1367Z" fill="#FF9C9B"/>
<path d="M10.1113 18.1641H30.3945V20.5859H10.1113V18.1641Z" fill="#868EAF"/>
<path d="M2.11914 30.3945H16.6504C17.4864 30.3945 18.1641 29.7168 18.1641 28.8809V2.11914C18.1641 1.28317 17.4864 0.605469 16.6504 0.605469H2.11914C1.28317 0.605469 0.605469 1.28317 0.605469 2.11914V28.8809C0.605469 29.7168 1.28317 30.3945 2.11914 30.3945Z" fill="#CCF5FC"/>
<path d="M6.96289 15.1367C6.96289 13.7992 8.04722 12.7148 9.38477 12.7148C10.7223 12.7148 11.8066 13.7992 11.8066 15.1367H6.96289Z" fill="white"/>
<path d="M13.9258 3.63281H4.84375L3.93555 0.605469H14.834L13.9258 3.63281Z" fill="#85E5F8"/>
<path d="M5.95963 11.7117C5.08352 12.5884 4.54102 13.7993 4.54102 15.1368H0.605469C0.605469 12.7125 1.58814 10.5177 3.17689 8.92896L5.95963 11.7117Z" fill="#FF9C9B"/>
<path d="M9.38475 6.35742V10.293C8.04727 10.293 6.83633 10.8355 5.95961 11.7116L3.17688 8.92885C4.76563 7.3401 6.96045 6.35742 9.38475 6.35742Z" fill="#FFE6B4"/>
<path d="M15.5926 8.92885L12.8099 11.7116C11.9332 10.8355 10.7222 10.293 9.38477 10.293V6.35742C11.8091 6.35742 14.0039 7.3401 15.5926 8.92885Z" fill="#D0F2D2"/>
<path d="M18.1641 15.1368H14.2285C14.2285 13.7993 13.686 12.5884 12.8099 11.7117L15.5927 8.92896C17.1814 10.5177 18.1641 12.7125 18.1641 15.1368Z" fill="#A0E5A5"/>
<path d="M28.8809 14.5312H18.7695V9.28123C18.7695 8.94695 18.4977 8.67576 18.1641 8.67576C17.8305 8.67576 17.5586 8.94695 17.5586 9.28123V10.5172C17.1449 9.78777 16.6299 9.10976 16.0208 8.50066C14.2481 6.72815 11.8914 5.75195 9.38477 5.75195C6.87812 5.75195 4.5214 6.72815 2.74871 8.50066C2.13967 9.10976 1.62465 9.78783 1.21094 10.5172V2.11914C1.21215 1.61902 1.61902 1.21215 2.11914 1.21094H3.48508L4.26383 3.80676C4.34061 4.06294 4.57638 4.23828 4.84375 4.23828H13.9258C14.1932 4.23828 14.4289 4.06294 14.5057 3.80676L15.2845 1.21094H16.6504C17.1499 1.21215 17.5573 1.61902 17.5586 2.11914V3.83141C17.5586 4.16563 17.8305 4.43748 18.1641 4.43748C18.4977 4.43748 18.7695 4.16563 18.7695 3.83141V2.11914C18.7695 1.55297 18.5491 1.02076 18.1489 0.620605C17.7487 0.220391 17.2165 0 16.6504 0H2.11914C1.55297 0 1.02076 0.220391 0.620605 0.620605C0.220391 1.02076 0 1.55297 0 2.11914V28.8809C0 29.447 0.220391 29.9792 0.620605 30.3794C1.02076 30.7795 1.55297 31 2.11914 31H16.6504C17.2165 31 17.7487 30.7795 18.1489 30.3794C18.5491 29.9792 18.7695 29.447 18.7695 28.8809V28.5176H28.8809C30.0494 28.5176 31 27.5669 31 26.3984V16.6504C31 15.4819 30.0494 14.5312 28.8809 14.5312ZM14.0202 1.21094L13.4753 3.02734H5.29422L4.7493 1.21094H14.0202ZM29.7891 16.6504V17.5586H18.7695V15.7422H28.8809C29.3816 15.7422 29.7891 16.1496 29.7891 16.6504ZM29.7891 19.9805H18.7695V18.7695H29.7891V19.9805ZM17.5367 14.5312H14.8009C14.6881 13.5046 14.2891 12.5413 13.6427 11.735L15.5771 9.8006C16.7276 11.1317 17.409 12.7766 17.5367 14.5312ZM12.7865 10.8788C12.5508 10.6898 12.3013 10.5226 12.0411 10.3769L12.3957 9.52711C12.5245 9.2185 12.3787 8.864 12.0701 8.73522C11.7618 8.60656 11.407 8.75217 11.2782 9.06084L10.925 9.90722C10.6214 9.81828 10.3089 9.75556 9.9903 9.72056V6.98481C11.7449 7.11244 13.3899 7.79384 14.7209 8.94429L12.7865 10.8788ZM8.7793 6.98481V9.72056C7.7526 9.83336 6.7893 10.2324 5.98306 10.8788L4.04865 8.94435C5.37971 7.7939 7.02471 7.1125 8.7793 6.98481ZM3.19239 9.8006L5.12681 11.735C4.48041 12.5413 4.0814 13.5046 3.96861 14.5312H1.23286C1.36055 12.7767 2.04194 11.1317 3.19239 9.8006ZM17.5586 28.8809C17.5573 29.381 17.1499 29.7878 16.6504 29.7891H2.11914C1.61902 29.7878 1.21215 29.381 1.21094 28.8809V15.7422H4.54102C4.87536 15.7422 5.14648 15.4711 5.14648 15.1367C5.14648 14.0052 5.58727 12.9408 6.3877 12.1396C7.18879 11.3392 8.25314 10.8984 9.38477 10.8984C9.75065 10.8984 10.1093 10.9452 10.4545 11.0347L9.98133 12.1687C9.78837 12.13 9.58899 12.1094 9.38477 12.1094C7.71549 12.1094 6.35742 13.4674 6.35742 15.1367C6.35742 15.4711 6.62855 15.7422 6.96289 15.7422H11.8066C12.141 15.7422 12.4121 15.4711 12.4121 15.1367C12.4121 14.1022 11.8902 13.1876 11.0962 12.6413L11.5707 11.5041C11.8622 11.6802 12.1346 11.8927 12.3818 12.1396C13.1822 12.9407 13.623 14.0051 13.623 15.1367C13.623 15.4711 13.8941 15.7422 14.2285 15.7422H17.5585V28.8809H17.5586ZM11.0974 14.5312H7.67214C7.92201 13.8264 8.59542 13.3203 9.38477 13.3203C10.1741 13.3203 10.8475 13.8264 11.0974 14.5312ZM28.8809 27.3066H18.7695V21.1914H29.7891V26.3984C29.7891 26.8992 29.3816 27.3066 28.8809 27.3066Z" fill="black"/>
<path d="M27.9727 23.6133C28.307 23.6133 28.5781 23.3422 28.5781 23.0078C28.5781 22.6734 28.307 22.4023 27.9727 22.4023C27.6383 22.4023 27.3672 22.6734 27.3672 23.0078C27.3672 23.3422 27.6383 23.6133 27.9727 23.6133Z" fill="black"/>
<path d="M22.5234 23.6133C22.8578 23.6133 23.1289 23.3422 23.1289 23.0078C23.1289 22.6734 22.8578 22.4023 22.5234 22.4023C22.189 22.4023 21.918 22.6734 21.918 23.0078C21.918 23.3422 22.189 23.6133 22.5234 23.6133Z" fill="black"/>
<path d="M25.248 23.6133C25.5824 23.6133 25.8535 23.3422 25.8535 23.0078C25.8535 22.6734 25.5824 22.4023 25.248 22.4023C24.9137 22.4023 24.6426 22.6734 24.6426 23.0078C24.6426 23.3422 24.9137 23.6133 25.248 23.6133Z" fill="black"/>
<path d="M18.1641 5.95117C17.8304 5.95117 17.5586 6.22236 17.5586 6.55603C17.5586 6.89025 17.8304 7.1615 18.1641 7.1615C18.4977 7.1615 18.7695 6.89025 18.7695 6.55603C18.7695 6.22242 18.4977 5.95117 18.1641 5.95117Z" fill="black"/>
<path d="M3.45117 18.1641H4.92894L3.37313 22.1838C3.25246 22.4956 3.4074 22.8463 3.71927 22.9671C3.79114 22.9949 3.86495 23.0081 3.93767 23.0081C4.18046 23.008 4.40957 22.8609 4.50245 22.6209L6.37716 17.7772C6.44921 17.5909 6.42481 17.3811 6.31195 17.2164C6.19909 17.0516 6.01224 16.9531 5.8125 16.9531H3.45117C3.11683 16.9531 2.8457 17.2243 2.8457 17.5586C2.8457 17.8929 3.11683 18.1641 3.45117 18.1641Z" fill="black"/>
<path d="M7.93627 19.1328C8.2645 19.197 8.58261 18.9831 8.64685 18.655C8.70262 18.3705 8.95316 18.1641 9.24263 18.1641C9.5668 18.1641 9.83242 18.4205 9.84907 18.7422L9.83551 18.848C9.77823 19.0716 9.63903 19.3456 9.4316 19.6427C8.68167 20.7168 8.23429 21.304 7.99391 21.6195C7.69221 22.0156 7.54072 22.2143 7.64256 22.5454C7.70287 22.7414 7.85096 22.8919 8.04931 22.9582C8.12905 22.9848 9.99105 23.0052 10.6638 22.9968C10.9982 22.9926 11.2658 22.7181 11.2616 22.3838C11.2575 22.052 10.9872 21.7859 10.6564 21.7859C10.6538 21.7859 10.6512 21.7859 10.6486 21.786C10.2205 21.7914 9.76824 21.7951 9.37662 21.7964C9.63298 21.4507 9.97585 20.9785 10.4245 20.3359C10.7323 19.8952 10.9332 19.4774 11.0218 19.0944C11.0263 19.0747 11.0609 18.7999 11.0609 18.7742C11.0609 17.77 10.2452 16.9531 9.24269 16.9531C8.37572 16.9531 7.62537 17.5709 7.45856 18.4222C7.39426 18.7503 7.60811 19.0685 7.93627 19.1328Z" fill="black"/>
<path d="M14.1074 23.0078C15.109 23.0078 15.9238 22.193 15.9238 21.1914V18.7695C15.9238 17.768 15.109 16.9531 14.1074 16.9531C13.1059 16.9531 12.291 17.768 12.291 18.7695V21.1914C12.291 22.193 13.1059 23.0078 14.1074 23.0078ZM13.502 18.7695C13.502 18.4357 13.7736 18.1641 14.1074 18.1641C14.4413 18.1641 14.7129 18.4357 14.7129 18.7695V21.1914C14.7129 21.5253 14.4413 21.7969 14.1074 21.7969C13.7736 21.7969 13.502 21.5253 13.502 21.1914V18.7695Z" fill="black"/>
<path d="M15.3486 27.3066H3.4209C3.08656 27.3066 2.81543 27.5778 2.81543 27.9121C2.81543 28.2464 3.08656 28.5176 3.4209 28.5176H15.3486C15.683 28.5176 15.9541 28.2464 15.9541 27.9121C15.9541 27.5778 15.683 27.3066 15.3486 27.3066Z" fill="black"/>
<path d="M15.3486 24.8848H3.4209C3.08656 24.8848 2.81543 25.1559 2.81543 25.4902C2.81543 25.8246 3.08656 26.0957 3.4209 26.0957H15.3486C15.683 26.0957 15.9541 25.8246 15.9541 25.4902C15.9541 25.1559 15.683 24.8848 15.3486 24.8848Z" fill="black"/>
</svg>
