<svg width="31" height="31" viewBox="0 0 31 31" fill="none" xmlns="http://www.w3.org/2000/svg">
<g clip-path="url(#clip0)">
<path d="M15.5 19.2717C20.5709 19.2717 24.6817 15.1609 24.6817 10.0899C24.6817 5.019 20.5709 0.908203 15.5 0.908203C10.429 0.908203 6.31824 5.019 6.31824 10.0899C6.31824 15.1609 10.429 19.2717 15.5 19.2717Z" fill="#A5E887"/>
<path d="M15.4999 0.908203V19.2717C20.5709 19.2717 24.6817 15.1609 24.6817 10.09C24.6817 5.01909 20.5709 0.908203 15.4999 0.908203Z" fill="#00CC76"/>
<path d="M25.5899 10.0899C25.5899 4.52633 21.0635 0 15.4999 0C9.93642 0 5.4101 4.52633 5.4101 10.0899C5.4101 14.6894 8.50377 18.5798 12.7195 19.79V23.3128H9.48091L15.4993 31.0001L21.5176 23.3128H18.2791V19.7904C22.4955 18.5806 25.5899 14.6899 25.5899 10.0899ZM7.22634 10.0899C7.22634 5.52781 10.9379 1.81625 15.4999 1.81625C20.0621 1.81625 23.7736 5.52781 23.7736 10.0899C23.7736 14.652 20.0621 18.3635 15.4999 18.3635C10.9379 18.3635 7.22634 14.652 7.22634 10.0899Z" fill="#00CC76"/>
<path d="M25.5899 10.0899C25.5899 4.52633 21.0635 0 15.4999 0V1.81625C20.062 1.81625 23.7736 5.52781 23.7736 10.0899C23.7736 14.652 20.062 18.3635 15.4999 18.3635V30.9991L21.5175 23.3127H18.279V19.7904C22.4955 18.5806 25.5899 14.6899 25.5899 10.0899Z" fill="#009986"/>
<path d="M16.6834 9.11443H14.7791C14.3616 9.11443 14.022 8.77485 14.022 8.35735C14.022 7.93986 14.3616 7.60022 14.7791 7.60022H17.9942V5.78398H16.4061V4.60645H14.5898V5.79167C13.259 5.88896 12.2057 7.00213 12.2057 8.35735C12.2057 9.77633 13.3602 10.9307 14.7791 10.9307H16.6834C17.1381 10.9307 17.5079 11.3005 17.5079 11.7552C17.5079 12.2099 17.1381 12.5797 16.6834 12.5797H12.5799V14.3959H14.5898V15.5735H16.4061V14.3959H16.6834C18.1395 14.3959 19.3242 13.2113 19.3242 11.7552C19.3242 10.299 18.1395 9.11443 16.6834 9.11443Z" fill="#FFF5F5"/>
<path d="M17.9942 7.60022V5.78398H16.4061V4.60645H15.4999V7.60022H17.9942Z" fill="#E1EBF0"/>
<path d="M16.4061 14.396H16.6834C18.1396 14.396 19.3242 13.2114 19.3242 11.7553C19.3242 10.2991 18.1396 9.1145 16.6834 9.1145H15.5V10.9307H16.6834C17.1381 10.9307 17.5079 11.3006 17.5079 11.7553C17.5079 12.2099 17.1381 12.5798 16.6834 12.5798H15.5V15.5736H16.4061V14.396H16.4061Z" fill="#E1EBF0"/>
</g>
<defs>
<clipPath id="clip0">
<rect width="31" height="31" fill="white"/>
</clipPath>
</defs>
</svg>
