<svg width="31" height="31" viewBox="0 0 31 31" fill="none" xmlns="http://www.w3.org/2000/svg">
<g clip-path="url(#clip0)">
<path d="M15.938 30.6569L16.2741 30.5722L22.647 23.9542C23.0262 23.5604 22.7471 22.9042 22.2004 22.9042H19.408C19.0657 22.9042 18.788 22.6266 18.788 22.2842V20.2487L17.3969 11.8626L18.788 3.6144V1.08094C18.788 0.738555 18.5105 0.460938 18.168 0.460938H13.7604L13.2186 0.850942C12.8762 0.850942 12.5986 1.1285 12.5986 1.47094L12.9086 22.3891C12.9086 22.7315 12.1311 22.9043 11.7887 22.9043H8.99635C8.96255 22.9043 8.92974 22.9068 8.89804 22.9116C8.41758 22.9845 8.60069 23.6277 8.95647 23.9972L15.1221 30.453C15.366 30.7062 15.6941 30.9101 15.938 30.6569Z" fill="#DF646E"/>
<path d="M16.2742 30.5722L16.045 30.81C15.8011 31.0632 15.3956 31.0632 15.1516 30.81L8.54974 23.9538C8.19397 23.5851 8.41763 22.9847 8.89815 22.9116L16.2742 30.5722Z" fill="#DC4955"/>
<path d="M21.9053 10.9634C21.6507 10.9634 21.4445 10.7571 21.4445 10.5026V3.85294C21.4445 3.59843 21.6507 3.39209 21.9053 3.39209C22.1599 3.39209 22.3662 3.59843 22.3662 3.85294V10.5026C22.3662 10.7571 22.1599 10.9634 21.9053 10.9634Z" fill="#DF646E"/>
<path d="M24.9777 8.14971C24.7231 8.14971 24.5168 7.94337 24.5168 7.68886V0.460852C24.5168 0.206339 24.7231 0 24.9777 0C25.2323 0 25.4385 0.206339 25.4385 0.460852V7.68886C25.4385 7.94337 25.2323 8.14971 24.9777 8.14971Z" fill="#DF646E"/>
<path d="M9.09476 10.9634C8.84019 10.9634 8.63391 10.7571 8.63391 10.5026V3.85294C8.63391 3.59843 8.84019 3.39209 9.09476 3.39209C9.34934 3.39209 9.55562 3.59843 9.55562 3.85294V10.5026C9.55562 10.7571 9.34928 10.9634 9.09476 10.9634Z" fill="#DF646E"/>
<path d="M6.02238 8.14971C5.7678 8.14971 5.56152 7.94337 5.56152 7.68886V0.460852C5.56152 0.206339 5.7678 0 6.02238 0C6.27695 0 6.48323 0.206339 6.48323 0.460852V7.68886C6.48323 7.94337 6.27689 8.14971 6.02238 8.14971Z" fill="#DF646E"/>
<path d="M15.4951 2.99071C14.9801 2.99071 14.4718 3.03421 13.9742 3.11913C13.8622 3.13824 13.7604 3.05099 13.7604 2.93744V0.460938H13.0286C12.6861 0.460938 12.4086 0.738494 12.4086 1.08094V3.53575V20.3274V22.2845C12.4086 22.6267 12.1308 22.9045 11.7886 22.9045H13.1404C13.4829 22.9045 13.7604 22.6269 13.7604 22.2845V20.9251C13.7604 20.8115 13.8622 20.7243 13.9742 20.7434C14.4718 20.8283 14.9801 20.8718 15.4951 20.8718C16.641 20.8718 17.7538 20.658 18.788 20.2487V3.6144C17.7538 3.20516 16.641 2.99071 15.4951 2.99071Z" fill="#DC4955"/>
<path d="M21.1816 6.34805C18.0981 3.26452 13.0986 3.26452 10.0151 6.34805C6.93155 9.43158 7.24727 14.3167 10.3309 17.4003C13.4145 20.4839 18.0981 20.5982 21.1817 17.5146C24.2652 14.4311 24.2652 9.43158 21.1816 6.34805Z" fill="#F7F9FA"/>
<path d="M21.5378 17.1335C21.4248 17.2632 21.3056 17.3904 21.1814 17.5145C18.098 20.5985 13.0987 20.5985 10.0153 17.5145C6.93126 14.4311 6.93126 9.43175 10.0153 6.34834C10.1394 6.22421 10.2666 6.10501 10.3963 5.99194C7.67354 9.09317 7.79275 13.8178 10.7527 16.7771C13.7119 19.737 18.4366 19.8562 21.5378 17.1335Z" fill="#E9EDF1"/>
<path d="M19.8807 7.64902C17.5156 5.28399 13.6812 5.28399 11.3161 7.64902C8.9511 10.0141 9.22092 13.5605 11.5859 15.9255C13.951 18.2905 17.5156 18.5786 19.8806 16.2136C22.2456 13.8485 22.2456 10.0141 19.8807 7.64902Z" fill="#E9EDF1"/>
<path d="M20.2616 15.7957C20.1424 15.9395 20.0152 16.079 19.8807 16.2135C17.5156 18.5786 13.6813 18.5786 11.3162 16.2135C8.95108 13.8484 8.95108 10.0141 11.3162 7.64904C11.4507 7.51447 11.5902 7.38727 11.734 7.26807C9.75727 9.64729 9.88446 13.1842 12.115 15.4147C14.3455 17.6452 17.8824 17.7724 20.2616 15.7957Z" fill="#DCE6EB"/>
<path d="M13.4569 11.2594C13.0804 11.2594 12.7039 11.1161 12.4172 10.8295C11.844 10.2563 11.844 9.32343 12.4172 8.7502C12.9905 8.17708 13.9232 8.17696 14.4965 8.7502C15.0698 9.32343 15.0698 10.2563 14.4965 10.8295C14.2099 11.1161 13.8334 11.2594 13.4569 11.2594ZM13.4569 9.24153C13.3165 9.24153 13.176 9.29498 13.069 9.40196C12.8551 9.6158 12.8551 9.96383 13.069 10.1777C13.2828 10.3916 13.6308 10.3918 13.8447 10.1777C14.0586 9.96383 14.0586 9.6158 13.8447 9.40196C13.7378 9.29505 13.5973 9.24153 13.4569 9.24153Z" fill="#DF646E"/>
<path d="M17.7393 15.5419C17.3628 15.5419 16.9864 15.3986 16.6997 15.112C16.1265 14.5387 16.1265 13.6059 16.6997 13.0327C17.2731 12.4595 18.2058 12.4595 18.779 13.0327C19.3523 13.6059 19.3523 14.5387 18.779 15.112C18.4924 15.3986 18.1159 15.5419 17.7393 15.5419ZM17.7393 13.524C17.5989 13.524 17.4585 13.5775 17.3515 13.6844C17.1376 13.8983 17.1376 14.2463 17.3515 14.4601C17.5654 14.6741 17.9134 14.6741 18.1272 14.4601C18.3411 14.2463 18.3411 13.8983 18.1272 13.6844C18.0203 13.5775 17.8798 13.524 17.7393 13.524Z" fill="#DF646E"/>
<path d="M12.7671 15.2235C12.6491 15.2235 12.5312 15.1785 12.4411 15.0886C12.2612 14.9085 12.2612 14.6168 12.4411 14.4368L18.1036 8.77434C18.2836 8.59443 18.5754 8.59443 18.7554 8.77434C18.9353 8.95438 18.9353 9.24613 18.7554 9.42611L13.0929 15.0886C13.0029 15.1785 12.885 15.2235 12.7671 15.2235Z" fill="#DF646E"/>
</g>
<defs>
<clipPath id="clip0">
<rect width="31" height="31" fill="white"/>
</clipPath>
</defs>
</svg>
