<svg width="31" height="31" viewBox="0 0 31 31" fill="none" xmlns="http://www.w3.org/2000/svg">
<g clip-path="url(#clip0)">
<path d="M14.1253 4.85991L19.3831 0.284075C19.8176 -0.0940405 20.4643 -0.0940405 20.8988 0.284075L26.1566 4.85991C26.9618 5.56068 26.4662 6.88502 25.3988 6.88502H24.6539V23.1464L17.917 21.3326C16.6528 21.3326 15.628 20.3078 15.628 19.0436V6.88508H14.8831C13.8157 6.88508 13.3201 5.56068 14.1253 4.85991Z" fill="#B3E59F"/>
<path d="M21.2415 0.581144L20.9002 0.283496C20.4655 -0.0944985 19.8188 -0.0944985 19.3842 0.283496L14.1262 4.85951C13.3213 5.56022 13.817 6.88456 14.8841 6.88456H15.6292V19.0429C15.6292 20.3074 16.6539 21.3322 17.9178 21.3322H20.1171C18.8532 21.3322 17.8284 20.3074 17.8284 19.0429V6.88456H17.0833C16.0161 6.88456 15.5205 5.56022 16.3254 4.85951L21.2415 0.581144Z" fill="#95D6A4"/>
<path d="M3.25491 14.2142L8.51274 9.63832C8.94722 9.26021 9.59392 9.26021 10.0284 9.63832L15.2862 14.2142C16.0915 14.9149 15.5958 16.2393 14.5284 16.2393H13.7835V28.7112C13.7835 29.9754 12.7587 31.0002 11.4945 31.0002H7.04666C5.7825 31.0002 4.75768 29.9754 4.75768 28.7112V16.2393H4.01277C2.94533 16.2393 2.44975 14.9149 3.25491 14.2142Z" fill="#B3E59F"/>
<path d="M10.3708 9.93539L10.0294 9.63774C9.59482 9.25975 8.94812 9.25975 8.51352 9.63774L3.25544 14.2138C2.45053 14.9145 2.94623 16.2388 4.01337 16.2388H4.75846V28.7106C4.75846 29.9751 5.78322 30.9999 7.04707 30.9999H9.24638C7.98246 30.9999 6.9577 29.9751 6.9577 28.7106V16.2388H6.21261C5.14542 16.2388 4.64978 14.9145 5.45469 14.2138L10.3708 9.93539Z" fill="#95D6A4"/>
<path d="M16.8243 22.0746C20.2936 22.0746 23.106 19.2622 23.106 15.7929C23.106 12.3236 20.2936 9.51123 16.8243 9.51123C13.355 9.51123 10.5426 12.3236 10.5426 15.7929C10.5426 19.2622 13.355 22.0746 16.8243 22.0746Z" fill="#FFE07D"/>
<path d="M17.5794 22.03C17.3316 22.0601 17.0794 22.0752 16.8241 22.0752C13.3551 22.0752 10.5426 19.2627 10.5426 15.7937C10.5426 12.3247 13.3551 9.51221 16.8241 9.51221C17.0794 9.51221 17.3316 9.52728 17.5794 9.55738C14.4657 9.9301 12.0523 12.5799 12.0523 15.7937C12.0523 19.0075 14.4657 21.6572 17.5794 22.03Z" fill="#FFD064"/>
<path d="M17.5266 15.3214C17.0284 15.1453 16.4767 14.932 16.1625 14.6856C16.0429 14.5918 15.9913 14.3942 16.0312 14.1824C16.0705 13.974 16.2117 13.7214 16.4901 13.6375C17.1062 13.452 17.5155 13.7724 17.5602 13.8097C17.7588 13.9748 18.0537 13.9479 18.219 13.7493C18.3843 13.5507 18.3573 13.2557 18.1587 13.0905C18.0724 13.0187 17.7494 12.7741 17.2586 12.6805V12.398C17.2586 12.1396 17.0491 11.9302 16.7908 11.9302C16.5324 11.9302 16.323 12.1396 16.323 12.398V12.7133C16.2891 12.7219 16.2549 12.7313 16.2203 12.7417C15.6515 12.913 15.2268 13.3987 15.1118 14.0092C15.0063 14.5688 15.1877 15.1102 15.5851 15.4219C15.9241 15.6878 16.3962 15.9142 17.2147 16.2036C17.82 16.4175 17.8065 16.9095 17.7726 17.1111C17.7053 17.5118 17.3683 17.9447 16.7876 17.9485C16.2513 17.9523 16.0699 17.9231 15.6509 17.6491C15.4347 17.5076 15.1448 17.5682 15.0034 17.7845C14.8619 18.0007 14.9226 18.2907 15.1388 18.4321C15.6018 18.7349 15.9269 18.8388 16.3229 18.871V19.1879C16.3229 19.4462 16.5323 19.6557 16.7907 19.6557C17.049 19.6557 17.2585 19.4462 17.2585 19.1879V18.827C18.0646 18.6285 18.5815 17.9425 18.6952 17.2662C18.843 16.3879 18.3842 15.6245 17.5266 15.3214Z" fill="#4A80AA"/>
<path d="M15.7136 24.0476L20.9715 19.4718C21.406 19.0937 22.0527 19.0937 22.4871 19.4718L27.745 24.0476C28.5502 24.7484 28.0545 26.0728 26.9872 26.0728H26.2423V28.7113C26.2423 29.9754 25.2174 31.0002 23.9533 31.0002H19.5054C18.2412 31.0002 17.2164 29.9754 17.2164 28.7113V26.0728H16.4715C15.4041 26.0728 14.9085 24.7484 15.7136 24.0476Z" fill="#B3E59F"/>
<path d="M22.8295 19.7689L22.4882 19.4712C22.0536 19.0932 21.4069 19.0932 20.9723 19.4712L15.7142 24.0473C14.9093 24.748 15.405 26.0723 16.4721 26.0723H17.2172V28.7107C17.2172 29.9752 18.242 31 19.5058 31H21.7051C20.4412 31 19.4164 29.9752 19.4164 28.7107V26.0723H18.6714C17.6042 26.0723 17.1085 24.748 17.9134 24.0473L22.8295 19.7689Z" fill="#95D6A4"/>
</g>
<defs>
<clipPath id="clip0">
<rect width="31" height="31" fill="white"/>
</clipPath>
</defs>
</svg>
