<svg width="31" height="31" viewBox="0 0 31 31" fill="none" xmlns="http://www.w3.org/2000/svg">
<path d="M11.6622 5.0534L6.06315 5.83978L5.84863 9.94244L14.0469 10.7222L20.5021 9.94244L18.3979 7.54993C16.7158 5.63738 14.1845 4.69914 11.6622 5.0534Z" fill="#C76E59"/>
<path d="M20.5021 9.94238H5.84865L5.64655 13.8073H12.0488L18.6484 19.3198L21.8801 11.5092L20.5021 9.94238Z" fill="#A34F3E"/>
<path d="M30.5762 26.0395L23.3549 10.1733L9.21979 16.6528L13.7046 26.5065L30.5762 26.0395Z" fill="#F47A21"/>
<path d="M5.44922 25.5381H31V27.3545H5.44922V25.5381Z" fill="#4B2746"/>
<path d="M15.6497 12.8699H13.4638L8.51666 13.8073C9.53797 15.8498 11.6256 17.1401 13.9093 17.1401H19.9199C19.9199 14.7816 18.0081 12.8699 15.6497 12.8699Z" fill="#A34F3E"/>
<path d="M6.7207 3.64551H0V9.94238L3.63281 11.1459L6.7207 9.94238V3.64551Z" fill="#6AA9FF"/>
<path d="M0 9.94238H6.7207V16.2393H0V9.94238Z" fill="#2682FF"/>
</svg>
