<svg width="360" height="219" viewBox="0 0 360 219" fill="none" xmlns="http://www.w3.org/2000/svg">
<g clip-path="url(#clip0)">
<path d="M43.5034 219L42.8856 218.861C49.774 188.291 67.0852 160.531 91.6301 140.694C110.187 125.72 132.257 115.705 155.763 111.592C179.269 107.48 203.437 109.405 225.992 117.187C248.546 124.968 268.745 138.35 284.687 156.072C300.628 173.795 311.788 195.274 317.114 218.488L316.497 218.628C301.916 154.737 245.804 110.114 180.042 110.114C115.143 110.114 57.7202 155.907 43.5034 219Z" fill="#3E3E3E"/>
<path d="M132.074 39.0909C141.572 39.0909 149.271 31.4073 149.271 21.9291C149.271 12.4509 141.572 4.76733 132.074 4.76733C122.576 4.76733 114.876 12.4509 114.876 21.9291C114.876 31.4073 122.576 39.0909 132.074 39.0909Z" fill="#FF6584"/>
<path d="M57.9833 215.101C58.5196 217.08 60.3567 218.305 60.3567 218.305C60.3567 218.305 61.3242 216.323 60.7879 214.344C60.2515 212.366 58.4144 211.14 58.4144 211.14C58.4144 211.14 57.4469 213.123 57.9833 215.101Z" fill="#3E3E3E"/>
<path d="M58.7714 214.676C60.2431 216.106 60.4229 218.304 60.4229 218.304C60.4229 218.304 58.2165 218.183 56.7448 216.754C55.273 215.324 55.0933 213.126 55.0933 213.126C55.0933 213.126 57.2996 213.246 58.7714 214.676Z" fill="#4AFFA0"/>
<path d="M98.8276 215.101C99.364 217.08 101.201 218.305 101.201 218.305C101.201 218.305 102.169 216.323 101.632 214.344C101.096 212.366 99.2588 211.14 99.2588 211.14C99.2588 211.14 98.2913 213.123 98.8276 215.101Z" fill="#3E3E3E"/>
<path d="M99.6158 214.676C101.087 216.106 101.267 218.304 101.267 218.304C101.267 218.304 99.0609 218.183 97.5891 216.754C96.1174 215.324 95.9376 213.126 95.9376 213.126C95.9376 213.126 98.144 213.246 99.6158 214.676Z" fill="#4AFFA0"/>
<path d="M106.927 57.5021L100.46 52.3392L136.673 20.073H228.5V48.4673L169.007 88.4775L106.927 57.5021Z" fill="#3E3E3E"/>
<path d="M245.242 38.1725V20.7176H233.05V24.9923L228.5 20.073L198.753 52.3392L187.113 60.0832L169.065 191.671L196.284 218.834H259.54V53.6299L245.242 38.1725Z" fill="#CCCCCC"/>
<path d="M198.753 52.3393H100.46V218.833H198.753V52.3393Z" fill="#F2F2F2"/>
<path d="M156.72 178.178H138.613V218.833H156.72V178.178Z" fill="#CCCCCC"/>
<path d="M119.213 189.794V183.34H111.453V189.794H118.567H119.213Z" fill="#3E3E3E"/>
<path d="M118.567 194.956H111.453V201.41H119.213V194.956H118.567Z" fill="#3E3E3E"/>
<path d="M132.147 183.341H124.387V189.794H132.147V183.341Z" fill="#3E3E3E"/>
<path d="M132.147 194.956H124.387V201.41H132.147V194.956Z" fill="#3E3E3E"/>
<path d="M172.24 189.794V183.34H164.48V189.794H171.593H172.24Z" fill="#3E3E3E"/>
<path d="M171.593 194.956H164.48V201.41H172.24V194.956H171.593Z" fill="#3E3E3E"/>
<path d="M185.173 183.341H177.413V189.794H185.173V183.341Z" fill="#3E3E3E"/>
<path d="M185.173 194.956H177.413V201.41H185.173V194.956Z" fill="#3E3E3E"/>
<path d="M226.56 60.7284V54.2755H218.8V60.7284H225.913H226.56Z" fill="#3E3E3E"/>
<path d="M225.913 65.8913H218.8V72.3443H226.56V65.8913H225.913Z" fill="#3E3E3E"/>
<path d="M239.493 54.2753H231.733V60.7285H239.493V54.2753Z" fill="#3E3E3E"/>
<path d="M239.493 65.8912H231.733V72.3444H239.493V65.8912Z" fill="#3E3E3E"/>
<path d="M226.56 96.8668V90.4135H218.8V96.8668H225.913H226.56Z" fill="#3E3E3E"/>
<path d="M225.913 102.029H218.8V108.483H226.56V102.029H225.913Z" fill="#3E3E3E"/>
<path d="M239.493 90.4136H231.733V96.8668H239.493V90.4136Z" fill="#3E3E3E"/>
<path d="M239.493 102.029H231.733V108.483H239.493V102.029Z" fill="#3E3E3E"/>
<path d="M226.56 133.005V126.552H218.8V133.005H225.913H226.56Z" fill="#3E3E3E"/>
<path d="M225.913 138.168H218.8V144.621H226.56V138.168H225.913Z" fill="#3E3E3E"/>
<path d="M239.493 126.552H231.733V133.005H239.493V126.552Z" fill="#3E3E3E"/>
<path d="M239.493 138.168H231.733V144.621H239.493V138.168Z" fill="#3E3E3E"/>
<path d="M226.56 169.143V162.69H218.8V169.143H225.913H226.56Z" fill="#3E3E3E"/>
<path d="M225.913 174.306H218.8V180.759H226.56V174.306H225.913Z" fill="#3E3E3E"/>
<path d="M239.493 162.69H231.733V169.143H239.493V162.69Z" fill="#3E3E3E"/>
<path d="M239.493 174.306H231.733V180.759H239.493V174.306Z" fill="#3E3E3E"/>
<path d="M186.467 60.7285H111.453V76.2164H186.467V60.7285Z" fill="#3E3E3E"/>
<path d="M186.467 91.7042H111.453V107.192H186.467V91.7042Z" fill="#3E3E3E"/>
<path d="M186.467 122.68H111.453V138.168H186.467V122.68Z" fill="#3E3E3E"/>
<path d="M186.467 153.656H111.453V169.143H186.467V153.656Z" fill="#3E3E3E"/>
<path d="M360 218.184H0V218.816H360V218.184Z" fill="#3E3E3E"/>
<path d="M62.1466 145.223H60.2865V218.544H62.1466V145.223Z" fill="#3E3E3E"/>
<path d="M79.313 154.567C79.4314 180.205 61.3559 201.073 61.3559 201.073C61.3559 201.073 43.0883 180.372 42.9699 154.734C42.8515 129.095 60.9271 108.228 60.9271 108.228C60.9271 108.228 79.1946 128.928 79.313 154.567Z" fill="#4AFFA0"/>
<path opacity="0.1" d="M79.313 154.567C79.4314 180.205 61.3559 201.073 61.3559 201.073C61.3559 201.073 43.0883 180.372 42.9699 154.734C42.8515 129.095 60.9271 108.228 60.9271 108.228C60.9271 108.228 79.1946 128.928 79.313 154.567Z" fill="black"/>
<path d="M37.9654 145.223H36.1053V218.544H37.9654V145.223Z" fill="#3E3E3E"/>
<path d="M55.132 154.567C55.2504 180.205 37.1749 201.073 37.1749 201.073C37.1749 201.073 18.9073 180.372 18.7889 154.734C18.6705 129.095 36.7461 108.228 36.7461 108.228C36.7461 108.228 55.0136 128.928 55.132 154.567Z" fill="#4AFFA0"/>
<path d="M299.384 52.2356C284.732 52.303 272.805 52.5191 272.805 52.5191C272.805 52.5191 286.982 33.78 299.331 40.7227C311.68 47.6654 325.866 52.275 325.866 52.275C325.866 52.275 314.036 52.1683 299.384 52.2356Z" fill="#F2F2F2"/>
<path d="M55.268 88.2558C40.6157 88.3232 28.6893 88.5392 28.6893 88.5392C28.6893 88.5392 42.8657 69.8001 55.2148 76.7428C67.5639 83.6855 81.7499 88.2952 81.7499 88.2952C81.7499 88.2952 69.9202 88.1884 55.268 88.2558Z" fill="#F2F2F2"/>
<path d="M108.461 13.0558C93.8083 13.1232 81.882 13.3393 81.882 13.3393C81.882 13.3393 96.0583 -5.39985 108.407 1.54285C120.757 8.48555 134.942 13.0952 134.942 13.0952C134.942 13.0952 123.113 12.9884 108.461 13.0558Z" fill="#F2F2F2"/>
<path d="M329.575 145.223H327.715V218.544H329.575V145.223Z" fill="#3E3E3E"/>
<path d="M346.742 154.567C346.86 180.205 328.784 201.073 328.784 201.073C328.784 201.073 310.517 180.372 310.398 154.734C310.28 129.095 328.356 108.228 328.356 108.228C328.356 108.228 346.623 128.928 346.742 154.567Z" fill="#4AFFA0"/>
<path d="M261.108 173.032H279.881V168.51H290.238V173.032H309.657V193.058H290.238V218.251H279.881V193.058H261.108L251.398 182.076L261.108 173.032Z" fill="#3E3E3E"/>
</g>
<defs>
<clipPath id="clip0">
<rect width="360" height="219" fill="white"/>
</clipPath>
</defs>
</svg>
